<?xml version="1.0" encoding="UTF-8"?>
<svg id="Camada_2" data-name="Camada 2" xmlns="http://www.w3.org/2000/svg"
                                viewBox="150 340 800 390" width="130" height="50">
                                <defs>
                                    <style>
                                        .cls-1 {
                                            fill: #034c6f;
                                        }

                                        .cls-1,
                                        .cls-2,
                                        .cls-3 {
                                            stroke-width: 0px;
                                        }

                                        .cls-2 {
                                            fill: #00adfc;
                                        }

                                        .cls-3 {
                                            fill: #044d71;
                                        }
                                    </style>
                                </defs>
                                <g>
                                    <circle class="cls-1" cx="753.19" cy="375.82" r="21.13" />
                                    <path class="cls-1"
                                        d="M138.85,455.84c-.21,0-.43,0-.43.32h0v91.54c0,1.71-1.39,3.09-3.09,3.09h-22.3c-2.45,0-3.73-1.28-3.73-3.73-.11-42.36-.21-83.54-.21-123.55,0-5.14,1.39-4.16,4.05-4.16,8.75-.11,17.39-.21,26.14-.21s5.33.96,7.26,2.99c27.1,28.06,52.71,54.84,77.03,80.34.64.64.96.53.96-.32v-76.29c0-26.25-17.5-41.93-43.21-41.93h-97.95c-5.44,0-10.67-2.13-13.44-6.72-3.2-5.23-2.35-12.38,1.92-16.75,3.41-3.52,7.68-5.23,12.91-5.23h90.26c9.18,0,16.11.43,20.91,1.17,29.66,5.23,50.36,26.03,56.23,55.59.96,5.12,1.49,12.06,1.49,20.81-.11,38.09-.21,76.18-.11,114.38,0,1.92-1.49,3.41-3.41,3.41h-17.28c-1.81,0-3.41-.75-4.69-2.13-29.34-30.51-58.79-61.24-88.34-92.29-.21-.21-.53-.43-.96-.53v.21h0Z" />
                                    <path class="cls-1"
                                        d="M307.21,448.8v20.7c0,.53.43.96.96.96h83.65c1.17-.11,2.24.85,2.24,2.03l.21,22.41c0,2.45-1.17,3.73-3.73,3.73h-82.79c-.32,0-.64.21-.64.64h0v21.87c0,.43.32.75.75.75l88.24-.21c1.92,0,2.88.96,2.88,2.88v21.87c0,2.56-1.39,3.95-3.95,3.95h-112.46c-1.07,0-2.13,0-3.2-.32-.43,0-.64-.32-.75-.64-.32-.96-.53-2.03-.53-3.31,0-41.08,0-82.05-.21-122.7,0-2.67,1.28-3.95,3.95-3.95h112.67c2.03,0,3.63,1.6,3.63,3.63h0v21.02c0,2.56-1.39,3.84-3.95,3.84l-86-.21c-.53,0-.96.43-.96.96h0v.11Z" />
                                    <path class="cls-1"
                                        d="M495.74,448.8c.21,32.76.21,65.3,0,97.63,0,2.67-1.39,4.05-4.05,4.05h-21.87c-1.92,0-3.52-1.6-3.52-3.52v-98.16c-.11-.32-.43-.53-.75-.53l-42.78.21c-2.88,0-4.27-1.39-4.27-4.27v-20.7c0-2.56,1.17-3.95,3.84-3.95h117.15c2.67-.11,3.95,1.17,3.95,3.84v20.91c0,4.37-3.84,3.95-7.36,4.05-13.23,0-26.46,0-39.69-.11-.43,0-.75.21-.75.64h.11v-.11Z" />
                                    <path class="cls-1"
                                        d="M671.14,504.81c11.42,17.39,27.21,32.97,50.15,27.53,15.68-3.73,18.99-18.78,18.88-32.54,0-26.46,0-52.39-.21-77.67,0-.96.64-1.81,1.6-2.13,1.39-.43,2.99-.64,4.8-.53h18.24c2.77,0,4.16,1.39,4.16,4.16v83.11c0,6.83-1.39,14.08-4.16,21.66-5.76,15.9-18.88,26.67-34.68,30.73-26.67,6.94-51.96-1.92-69.88-22.09-8.43-9.5-16.22-20.06-23.15-31.69-.43-.75-1.28-1.28-2.24-1.28h-40.97c-.53,0-.85.32-.85.85h0v42.36c0,1.92-1.49,3.41-3.41,3.41h-21.77c-2.45,0-3.63-1.28-3.63-3.63v-124.19c0-2.45,1.07-3.63,3.52-3.63h98.05c5.97,0,11.95,1.07,17.92,3.31,17.28,6.29,26.14,18.88,26.89,37.66.85,24.65-15.9,39.69-38.84,43.53-.64,0-.75.43-.43.85v.21h0ZM592.94,448.69v26.46c0,.43.43.85.85.85h69.35c10.24-.11,18.56-5.65,18.56-12.59v-3.41c0-6.83-8.32-12.38-18.56-12.38h-69.35c-.43.11-.85.53-.85.96h0v.11Z" />
                                    <path class="cls-1"
                                        d="M865.01,463.74c.21.21.53.21.75,0h0c11.42-12.38,23.26-25.07,35.53-38.09,1.71-1.81,5.12-6.08,7.58-6.19,11.31-.32,23.37-.32,36.06,0,1.28,0,1.71.64,1.17,1.81-.43.96-1.17,2.03-2.24,3.2-18.56,19.74-37.66,39.9-57.19,60.39-.21.21-.21.53,0,.85,5.76,5.97,11.1,11.63,16,16.96,54.95,59.32,89.94,97.31,104.99,113.74,7.26,8,5.33,20.38-4.91,24.33-5.76,2.24-12.8,0-16.96-4.48-39.48-42.68-79.49-85.78-119.82-129.1-.32-.32-.85-.32-1.17,0h0l-38.52,41.82c-.96,1.07-2.13,1.6-3.63,1.6h-36.6c-1.17,0-1.6-.53-1.39-1.71,0-.53.32-.96.64-1.28,19.85-21.13,39.16-41.72,58.04-61.78.32-.32.32-.64,0-.96-18.24-19.53-36.92-40.12-56.12-61.88-.21-.21-.43-.53-.53-.96-.53-1.6,0-2.35,1.71-2.35,11.1-.32,22.41-.32,33.82-.21,1.39,0,2.67.53,3.52,1.6,13.23,14.51,26.25,28.7,39.05,42.78h.21v-.11Z" />
                                </g>
                                <path class="cls-3"
                                    d="M497.79,586.12v114.62c0,.6.49,1.08,1.08,1.08h43.6c.6,0,1.08.49,1.08,1.08v19.92c0,.6-.49,1.08-1.08,1.08h-71.45c-.6,0-1.08-.49-1.08-1.08v-136.71c0-.6.49-1.08,1.08-1.08h25.69c.6,0,1.08.49,1.08,1.08Z" />
                                <path class="cls-1"
                                    d="M763.6,723.91h-58.8c-.6,0-1.08-.49-1.08-1.08v-136.71c0-.6.49-1.08,1.08-1.08h56.22c29.05,0,45.16,15.12,45.16,35.81,0,15.5-8.53,25.66-20.37,30.61-.94.39-.89,1.73.08,2.02,13.91,4.13,23.47,17.71,23.47,32.82,0,22.08-16.91,37.6-45.76,37.6ZM757.03,607.52h-24.38c-.6,0-1.08.49-1.08,1.08v32.65c0,.6.49,1.08,1.08,1.08h24.38c13.13,0,20.69-5.97,20.69-17.31s-7.56-17.51-20.69-17.51ZM759.02,663.83h-26.37c-.6,0-1.08.49-1.08,1.08v35.24c0,.6.49,1.08,1.08,1.08h26.97c13.53,0,21.49-6.57,21.49-18.31s-8.56-19.1-22.09-19.1Z" />
                                <path class="cls-1"
                                    d="M879.59,725.31c-28.44,0-50.49-14.69-51.5-40.26-.02-.61.48-1.12,1.09-1.12h27.74c.56,0,1.01.43,1.07.98,1.15,10.59,8.45,17.52,21,17.52s20.89-6.96,20.89-16.91c0-30.04-71.63-11.94-71.43-62.27,0-25.07,20.29-40.19,48.94-40.19s47.33,14.07,49.64,38.41c.06.63-.45,1.19-1.09,1.19h-28.47c-.56,0-1.01-.43-1.07-.98-1.04-8.68-8.3-15.34-19.8-15.53-10.94-.4-19.1,4.97-19.1,16.31,0,27.86,71.23,12.34,71.23,61.28,0,21.89-17.51,41.58-49.14,41.58Z" />
                                <g>
                                    <path class="cls-1"
                                        d="M674.5,723.91h-100.95c-5.65,0-11.11-2.42-14.62-6.85-3.66-4.62-4.84-10.55-3.24-16.2l32.24-113.8c.43-1.52,2.01-2.4,3.52-1.97l17.2,4.87c1.52.43,2.4,2.01,1.97,3.52l-29.23,103.19c-.52,1.82.85,3.63,2.75,3.63h79.77c1.89,0,3.26-1.81,2.75-3.63l-29.23-103.19c-.43-1.52.45-3.1,1.97-3.52l17.2-4.87c1.52-.43,3.1.45,3.52,1.97l32.24,113.8c1.6,5.65.42,11.58-3.24,16.19-3.51,4.43-8.97,6.85-14.62,6.85Z" />
                                    <g>
                                        <g>
                                            <circle class="cls-2" cx="619.93" cy="604.82" r="4.34" />
                                            <circle class="cls-2" cx="627.3" cy="594.63" r="3.23" />
                                            <circle class="cls-2" cx="622.15" cy="583.02" r="3.23" />
                                            <circle class="cls-2" cx="621.19" cy="569.56" r="2.27" />
                                            <circle class="cls-2" cx="627.3" cy="558.86" r="2.27" />
                                            <circle class="cls-2" cx="621.8" cy="544.03" r="2.27" />
                                            <circle class="cls-2" cx="621.8" cy="534.35" r="1.66" />
                                            <circle class="cls-2" cx="627.3" cy="539.59" r="1.11" />
                                        </g>
                                        <path class="cls-2"
                                            d="M609.35,617.74l-20.44,72.15c-.61,2.14,1,4.26,3.22,4.26h63.12c2.22,0,3.83-2.13,3.22-4.26l-19.29-67.73c-.48-1.68-2.48-2.48-3.92-1.48-2.35,1.63-6.23,2.39-11.56-2.94-11.12-11.12-14.34,0-14.34,0Z" />
                                    </g>
                                </g>
</svg>
